Coordinates
version=1
nRows=5
nColumns=40
inDegrees=yes

Units are S.I. units (second, meters, Newtons, ...)
If the header above contains a line with 'inDegrees', this indicates whether rotational values are in degrees (yes) or radians (no).

endheader
time	pelvis_tilt	pelvis_list	pelvis_rotation	pelvis_tx	pelvis_ty	pelvis_tz	hip_flexion_r	hip_adduction_r	hip_rotation_r	knee_angle_r	knee_angle_r_beta	ankle_angle_r	subtalar_angle_r	mtp_angle_r	hip_flexion_l	hip_adduction_l	hip_rotation_l	knee_angle_l	knee_angle_l_beta	ankle_angle_l	subtalar_angle_l	mtp_angle_l	lumbar_extension	lumbar_bending	lumbar_rotation	arm_flex_r	arm_add_r	arm_rot_r	elbow_flex_r	pro_sup_r	wrist_flex_r	wrist_dev_r	arm_flex_l	arm_add_l	arm_rot_l	elbow_flex_l	pro_sup_l	wrist_flex_l	wrist_dev_l
      0.36000000	      1.45490134	     -3.99090767	      0.80603367	      0.37083120	      0.96776415	     -0.18430866	     -7.88965410	      7.12874172	     -2.72514594	      6.78361020	      0.11839633	      7.60139054	      0.00000000	      0.00000000	     21.76729783	     -8.54749456	     -7.61021159	     36.52178014	      0.63742531	      6.10841639	      0.00000000	      0.00000000	    -15.59796317	      3.57736321	      2.36120116	     -8.64846023	     -4.68027676	    -11.33002397	     72.13237311	     77.83237024	      5.70545631	      7.87067353	    -14.13587814	     -9.38452123	      2.35082443	     41.44761172	     88.98980053	     -5.82495640	      8.31774107
      0.37000000	      1.12679484	     -3.86754024	      0.96312869	      0.38652821	      0.96569798	     -0.18486687	     -8.87425357	      7.06258795	     -2.88404634	      6.15286318	      0.10738772	      7.93244434	      0.00000000	      0.00000000	     22.51509876	     -7.92868342	     -7.54585906	     32.52657242	      0.56769578	      5.98744657	      0.00000000	      0.00000000	    -15.27901710	      3.34459547	      2.33835017	     -8.36107720	     -4.83621732	    -11.37797089	     74.17135138	     77.75387387	      5.75477809	      7.64877963	    -14.57676945	     -9.16016713	      2.35722192	     40.05058658	     89.02777104	     -6.04595620	      8.45093228
      0.38000000	      1.39627469	     -3.39994278	      0.94748810	      0.40235289	      0.96447153	     -0.18525973	    -10.46617939	      6.60431092	     -2.98827506	      5.63013888	      0.09826446	      8.37251582	      0.00000000	      0.00000000	     22.31033738	     -7.02695569	     -7.83787750	     28.17755215	      0.49179106	      5.45384610	      0.00000000	      0.00000000	    -15.71370176	      2.72619307	      2.72178299	     -8.27802221	     -4.94695901	    -11.74751196	     76.46558818	     77.62419800	      5.71734474	      7.32050747	    -14.69143228	     -9.20542476	      3.25183546	     38.71062835	     89.02351744	     -6.48219763	      8.35816196
      0.39000000	      1.37992260	     -3.20314413	      0.97408676	      0.41818581	      0.96252398	     -0.18585227	    -11.67618384	      6.41520693	     -3.06639406	      5.25311333	      0.09168412	      8.71940345	      0.00000000	      0.00000000	     22.41136845	     -6.33430061	     -7.66587486	     23.98657991	      0.41864480	      4.86626990	      0.00000000	      0.00000000	    -15.79355835	      2.40709998	      2.99683696	     -8.18503301	     -5.13070583	    -12.02763559	     78.58632835	     77.62295033	      5.67402571	      7.04406239	    -14.87143754	     -9.08377482	      3.74002171	     37.35562803	     89.04010867	     -6.99048710	      8.32531498
      0.40000000	      1.24713601	     -3.09550328	      1.08926114	      0.43415854	      0.96018850	     -0.18664055	    -12.67630864	      6.31262392	     -3.25220307	      5.06293588	      0.08836490	      9.01842231	      0.00000000	      0.00000000	     22.61229950	     -5.69469344	     -7.13100259	     20.00786707	      0.34920316	      4.04825803	      0.00000000	      0.00000000	    -15.70344052	      2.18224898	      3.14747812	     -8.11203324	     -5.34356938	    -12.25284059	     80.47916870	     77.63164944	      5.65437862	      6.78987070	    -15.11430017	     -8.90679622	      3.92019954	     36.13710389	     89.07246703	     -7.32061406	      8.36354358
